<!--?xml version="1.0" standalone="no"?-->
              <svg id="sw-js-blob-svg" viewBox="0 0 100 100" xmlns="http://www.w3.org/2000/svg" version="1.1">
                    <defs> 
                        <linearGradient id="sw-gradient" x1="0" x2="1" y1="1" y2="0">
                            <stop id="stop1" stop-color="rgba(255, 255, 255, 1)" offset="0%"></stop>
                            <stop id="stop2" stop-color="rgba(255, 255, 255, 1)" offset="100%"></stop>
                        </linearGradient>
                    </defs>
                <path fill="url(#sw-gradient)" d="M17.8,-31.3C22.7,-28,25.9,-22.4,28.6,-16.8C31.2,-11.2,33.2,-5.6,34.9,1C36.6,7.6,38,15.2,35.4,20.8C32.7,26.4,26.1,30,19.5,32.3C12.9,34.6,6.5,35.7,-0.8,37.1C-8.1,38.5,-16.2,40.2,-22.7,37.9C-29.2,35.5,-34.1,29,-37.7,22C-41.2,15,-43.4,7.5,-41.8,0.9C-40.2,-5.6,-34.7,-11.3,-30.3,-16.7C-25.8,-22.2,-22.4,-27.5,-17.5,-30.8C-12.6,-34.1,-6.3,-35.4,0.1,-35.5C6.5,-35.7,12.9,-34.6,17.8,-31.3Z" width="100%" height="100%" transform="translate(50 50)" stroke-width="0" style="transition: all 0.3s ease 0s;" stroke="url(#sw-gradient)"></path>
              </svg>