<!--?xml version="1.0" standalone="no"?-->
              <svg id="sw-js-blob-svg" viewBox="0 0 100 100" xmlns="http://www.w3.org/2000/svg" version="1.1">
                    <defs> 
                        <linearGradient id="sw-gradient" x1="0" x2="1" y1="1" y2="0">
                            <stop id="stop1" stop-color="rgba(255, 255, 255, 1)" offset="0%"></stop>
                            <stop id="stop2" stop-color="rgba(255, 255, 255, 1)" offset="100%"></stop>
                        </linearGradient>
                    </defs>
                <path fill="url(#sw-gradient)" d="M18,-29.4C24.7,-27.2,32.7,-25.3,36.6,-20.5C40.6,-15.6,40.6,-7.8,37.1,-2C33.7,3.9,26.9,7.7,24.1,14.7C21.4,21.6,22.7,31.7,19.4,37.3C16,42.9,8,44.2,0.4,43.5C-7.2,42.8,-14.5,40.2,-20.8,36.3C-27.2,32.4,-32.7,27.2,-34,21C-35.2,14.7,-32.3,7.3,-31.1,0.7C-30,-6,-30.6,-12,-28.9,-17.5C-27.2,-23.1,-23.1,-28.1,-17.9,-31.1C-12.7,-34.2,-6.4,-35.4,-0.4,-34.7C5.6,-34,11.2,-31.6,18,-29.4Z" width="100%" height="100%" transform="translate(50 50)" stroke-width="0" style="transition: all 0.3s ease 0s;" stroke="url(#sw-gradient)"></path>
              </svg>