<!--?xml version="1.0" standalone="no"?-->
              <svg id="sw-js-blob-svg" viewBox="0 0 100 100" xmlns="http://www.w3.org/2000/svg" version="1.1">
                    <defs> 
                        <linearGradient id="sw-gradient" x1="0" x2="1" y1="1" y2="0">
                            <stop id="stop1" stop-color="rgba(255, 255, 255, 1)" offset="0%"></stop>
                            <stop id="stop2" stop-color="rgba(255, 255, 255, 1)" offset="100%"></stop>
                        </linearGradient>
                    </defs>
                <path fill="url(#sw-gradient)" d="M18.3,-35.5C22.2,-29.4,22.8,-21.5,25.6,-15.3C28.3,-9,33.2,-4.5,33.2,0C33.2,4.5,28.3,9,26.1,16.2C23.9,23.3,24.3,33.1,20.4,37.3C16.5,41.5,8.3,40.1,1.7,37.1C-4.8,34.1,-9.6,29.5,-14.2,25.8C-18.8,22,-23.2,18.9,-25.1,14.8C-27,10.6,-26.4,5.3,-28.3,-1.1C-30.2,-7.5,-34.5,-14.9,-34,-21.6C-33.6,-28.3,-28.4,-34.2,-21.9,-38.8C-15.4,-43.3,-7.7,-46.5,-0.3,-46.1C7.2,-45.6,14.4,-41.5,18.3,-35.5Z" width="100%" height="100%" transform="translate(50 50)" stroke-width="0" style="transition: all 0.3s ease 0s;" stroke="url(#sw-gradient)"></path>
              </svg>